<svg xmlns="http://www.w3.org/2000/svg" version="1.1" viewBox="0 0 480 750"><g><path d="m73.697 474.61 50 187c0 33.137 53.726 60 120 60s120-26.863 120-60l50-187h-340z" fill="#a15623" stroke="#000" stroke-width="4"/><path d="m63.697 369.61.156 100c13.464 43.048 89.97 76 179.84 76 89.875 0 166.38-32.952 179.84-76l.157-100h-360z" fill="#a15623" stroke="#000" stroke-width="6"/><path d="M423.697 369.65c0 49.706-80.589 90-180 90s-180-40.294-180-90 80.589-90 180-90 180 40.295 180 90z" fill="#a15623" stroke="#000" stroke-width="6"/><path d="M243.697 364.61c-68.665 0-128.34 19.229-158.69 47.5 30.356 28.263 90.034 47.5 158.69 47.5 68.654 0 128.33-19.237 158.69-47.5-30.351-28.271-90.022-47.5-158.69-47.5z" fill="#a15623" stroke="#000" stroke-width="6"/><path d="M248.697 369.59c-10.391 0-25.004 2.776-35 5-13.781 3.067-27.695 2.154-40 5-12.844 2.97-24.605.199-35 5-7.334 3.388-13.142 11.515-20 15-11.989 6.092-21.848 7.406-30 15 31.181 24.961 87.644 48.048 155 45 74.96-3.392 128.94-21.777 155-45-7.843-7.305-17.809-14.671-30-20-12.958-5.665-24.664-5.678-40-10-4.11-1.158-15.926-9.4-20-10-14.019-2.067-20.222.963-35 0-8.17-.532-15.385-5-25-5z" fill="#140a04"/><g><path d="M233.697 423.59c20-160 100-200 100-200m-100 180c.824-178.05-39.176-238.05-39.176-238.05" fill="none" stroke="#005600" stroke-width="4"/><path d="M233.697 423.59c10-210-20-300-20-300" fill="none" stroke="#005600" stroke-width="4"/><g><path d="M-360.5 492.38c0 50.117 17.583 77.786 35.188 92.875 17.604 15.089 35.25 17.594 35.25 17.594l.125-.969s-17.354-2.495-34.75-17.406c-17.39-14.91-34.81-42.21-34.81-92.09h-1z" fill="#007200" color="#000" style="block-progression:tb;text-indent:0;text-transform:none" transform="rotate(-25.399 -820.585 -967.533)"/><path d="m-359.94 491.88-.125.969s17.354 2.495 34.75 17.406c17.396 14.91 34.812 42.242 34.812 92.125h1c0-50.117-17.583-77.817-35.188-92.906-17.604-15.09-35.25-17.594-35.25-17.594z" fill="#007200" color="#000" style="block-progression:tb;text-indent:0;text-transform:none" transform="rotate(-25.399 -820.585 -967.533)"/><path d="M323.706 223.604c-12.585 1.377-24.835-.1-36.836-4.441-9.26-3.35-16.338-7.358-25.25-14.297-13.839-10.773-24.129-23.509-35.081-43.414-3.323-6.04-3.806-7.24-2.95-7.356.561-.075 3.317-.451 6.125-.838 11.736-1.61 24.123-.166 36.65 4.272 17.11 6.06 31.668 16.793 44.562 32.859 7.996 9.96 20.915 31.773 19.185 32.39-.275.098-3.156.47-6.405.825z" fill="#14a204" stroke="#007200" stroke-width="2.807"/></g><g><path d="M-360.5 492.38c0 50.117 17.583 77.786 35.188 92.875 17.604 15.089 35.25 17.594 35.25 17.594l.125-.969s-17.354-2.495-34.75-17.406c-17.39-14.91-34.81-42.21-34.81-92.09h-1z" fill="#007200" color="#000" style="block-progression:tb;text-indent:0;text-transform:none" transform="translate(643.757 -219.252)"/><path d="m-359.94 491.88-.125.969s17.354 2.495 34.75 17.406c17.396 14.91 34.812 42.242 34.812 92.125h1c0-50.117-17.583-77.817-35.188-92.906-17.604-15.09-35.25-17.594-35.25-17.594z" fill="#007200" color="#000" style="block-progression:tb;text-indent:0;text-transform:none" transform="translate(643.757 -219.252)"/><path d="M345.957 380.028c-11.959-4.154-22.391-10.742-31.37-19.811-6.928-6.998-11.603-13.654-16.678-23.745-7.88-15.668-11.713-31.586-13.069-54.265-.411-6.882-.332-8.173.49-7.91.54.173 3.191 1.015 5.893 1.87 11.292 3.58 21.862 10.197 31.276 19.579 12.856 12.812 21.403 28.753 26.16 48.796 2.951 12.427 5.266 37.673 3.438 37.489-.29-.03-3.052-.93-6.14-2.003z" fill="#14a204" stroke="#007200" stroke-width="2.807"/></g><g><path d="M-360.5 492.38c0 50.117 17.583 77.786 35.188 92.875 17.604 15.089 35.25 17.594 35.25 17.594l.125-.969s-17.354-2.495-34.75-17.406c-17.39-14.91-34.81-42.21-34.81-92.09h-1z" fill="#007200" color="#000" style="block-progression:tb;text-indent:0;text-transform:none" transform="rotate(180 -83.181 328.22)"/><path d="m-359.94 491.88-.125.969s17.354 2.495 34.75 17.406c17.396 14.91 34.812 42.242 34.812 92.125h1c0-50.117-17.583-77.817-35.188-92.906-17.604-15.09-35.25-17.594-35.25-17.594z" fill="#007200" color="#000" style="block-progression:tb;text-indent:0;text-transform:none" transform="rotate(180 -83.181 328.22)"/><path d="M131.437 57.16c11.959 4.154 22.391 10.742 31.37 19.811 6.928 6.998 11.603 13.654 16.678 23.745 7.88 15.668 11.713 31.586 13.069 54.265.411 6.882.332 8.173-.49 7.91-.54-.173-3.191-1.015-5.893-1.87-11.292-3.58-21.862-10.197-31.276-19.579-12.856-12.812-21.403-28.753-26.16-48.796-2.951-12.427-5.266-37.673-3.438-37.489.29.03 3.052.93 6.14 2.003z" fill="#14a204" stroke="#007200" stroke-width="2.807"/></g><g><path d="M-360.5 492.38c0 50.117 17.583 77.786 35.188 92.875 17.604 15.089 35.25 17.594 35.25 17.594l.125-.969s-17.354-2.495-34.75-17.406c-17.39-14.91-34.81-42.21-34.81-92.09h-1z" fill="#007200" color="#000" style="block-progression:tb;text-indent:0;text-transform:none" transform="rotate(180 -52.901 412.965)"/><path d="m-359.94 491.88-.125.969s17.354 2.495 34.75 17.406c17.396 14.91 34.812 42.242 34.812 92.125h1c0-50.117-17.583-77.817-35.188-92.906-17.604-15.09-35.25-17.594-35.25-17.594z" fill="#007200" color="#000" style="block-progression:tb;text-indent:0;text-transform:none" transform="rotate(180 -52.901 412.965)"/><path d="M191.997 226.65c11.959 4.154 22.391 10.742 31.37 19.811 6.928 6.998 11.603 13.654 16.678 23.745 7.88 15.668 11.713 31.586 13.069 54.265.411 6.882.332 8.173-.49 7.91-.54-.173-3.191-1.015-5.893-1.87-11.292-3.58-21.862-10.197-31.276-19.579-12.856-12.812-21.403-28.753-26.16-48.796-2.951-12.427-5.266-37.673-3.438-37.489.29.03 3.052.93 6.14 2.003z" fill="#14a204" stroke="#007200" stroke-width="2.807"/></g><g><path d="M-360.5 492.38c0 50.117 17.583 77.786 35.188 92.875 17.604 15.089 35.25 17.594 35.25 17.594l.125-.969s-17.354-2.495-34.75-17.406c-17.39-14.91-34.81-42.21-34.81-92.09h-1z" fill="#007200" color="#000" style="block-progression:tb;text-indent:0;text-transform:none" transform="matrix(1 0 0 -1 693.197 715.97)"/><path d="m-359.94 491.88-.125.969s17.354 2.495 34.75 17.406c17.396 14.91 34.812 42.242 34.812 92.125h1c0-50.117-17.583-77.817-35.188-92.906-17.604-15.09-35.25-17.594-35.25-17.594z" fill="#007200" color="#000" style="block-progression:tb;text-indent:0;text-transform:none" transform="matrix(1 0 0 -1 693.197 715.97)"/><path d="M395.397 116.69c-11.959 4.154-22.391 10.742-31.37 19.811-6.928 6.998-11.603 13.654-16.678 23.745-7.88 15.668-11.713 31.586-13.069 54.265-.411 6.882-.332 8.173.49 7.91.54-.173 3.191-1.015 5.893-1.87 11.292-3.58 21.862-10.197 31.276-19.579 12.856-12.812 21.403-28.753 26.16-48.796 2.951-12.427 5.266-37.673 3.438-37.489-.29.03-3.052.93-6.14 2.003z" fill="#14a204" stroke="#007200" stroke-width="2.807"/></g><g><path d="M-360.5 492.38c0 50.117 17.583 77.786 35.188 92.875 17.604 15.089 35.25 17.594 35.25 17.594l.125-.969s-17.354-2.495-34.75-17.406c-17.39-14.91-34.81-42.21-34.81-92.09h-1z" fill="#007200" color="#000" style="block-progression:tb;text-indent:0;text-transform:none" transform="rotate(-25.399 -996.52 -704.1)"/><path d="m-359.94 491.88-.125.969s17.354 2.495 34.75 17.406c17.396 14.91 34.812 42.242 34.812 92.125h1c0-50.117-17.583-77.817-35.188-92.906-17.604-15.09-35.25-17.594-35.25-17.594z" fill="#007200" color="#000" style="block-progression:tb;text-indent:0;text-transform:none" transform="rotate(-25.399 -996.52 -704.1)"/><path d="M193.709 173.604c-12.585 1.377-24.835-.1-36.836-4.44-9.26-3.35-16.338-7.358-25.25-14.297-13.839-10.774-24.129-23.509-35.081-43.414-3.323-6.04-3.806-7.24-2.95-7.356.562-.075 3.318-.452 6.125-.838 11.736-1.61 24.123-.166 36.65 4.272 17.11 6.059 31.668 16.793 44.562 32.858 7.996 9.96 20.916 31.773 19.185 32.391-.275.098-3.156.47-6.405.824z" fill="#14a204" stroke="#007200" stroke-width="2.807"/></g><g><path d="M-360.5 492.38c0 50.117 17.583 77.786 35.188 92.875 17.604 15.089 35.25 17.594 35.25 17.594l.125-.969s-17.354-2.495-34.75-17.406c-17.39-14.91-34.81-42.21-34.81-92.09h-1z" fill="#007200" color="#000" style="block-progression:tb;text-indent:0;text-transform:none" transform="matrix(1 0 0 -1 573.757 626.44)"/><path d="m-359.94 491.88-.125.969s17.354 2.495 34.75 17.406c17.396 14.91 34.812 42.242 34.812 92.125h1c0-50.117-17.583-77.817-35.188-92.906-17.604-15.09-35.25-17.594-35.25-17.594z" fill="#007200" color="#000" style="block-progression:tb;text-indent:0;text-transform:none" transform="matrix(1 0 0 -1 573.757 626.44)"/><path d="M275.957 27.16c-11.959 4.154-22.391 10.742-31.37 19.811-6.928 6.998-11.603 13.654-16.678 23.745-7.88 15.668-11.713 31.586-13.069 54.265-.411 6.882-.332 8.173.49 7.91.54-.173 3.191-1.015 5.893-1.87 11.292-3.58 21.862-10.197 31.276-19.579 12.856-12.812 21.403-28.753 26.16-48.796 2.951-12.427 5.266-37.673 3.438-37.489-.29.03-3.052.93-6.14 2.003z" fill="#14a204" stroke="#007200" stroke-width="2.807"/></g><g><path d="M-360.5 492.38c0 50.117 17.583 77.786 35.188 92.875 17.604 15.089 35.25 17.594 35.25 17.594l.125-.969s-17.354-2.495-34.75-17.406c-17.39-14.91-34.81-42.21-34.81-92.09h-1z" fill="#007200" color="#000" style="block-progression:tb;text-indent:0;text-transform:none" transform="rotate(-34.282 -797 -462.792)"/><path d="m-359.94 491.88-.125.969s17.354 2.495 34.75 17.406c17.396 14.91 34.812 42.242 34.812 92.125h1c0-50.117-17.583-77.817-35.188-92.906-17.604-15.09-35.25-17.594-35.25-17.594z" fill="#007200" color="#000" style="block-progression:tb;text-indent:0;text-transform:none" transform="rotate(-34.282 -797 -462.792)"/><path d="M213.707 133.59c-12.222 3.303-24.552 3.736-37.08 1.3-9.666-1.88-17.278-4.747-27.155-10.226-15.336-8.507-27.47-19.501-41.364-37.476-4.216-5.455-4.878-6.567-4.05-6.812.543-.161 3.208-.959 5.922-1.774 11.347-3.403 23.807-3.889 36.87-1.44 17.84 3.345 33.88 11.703 49.101 25.584 9.438 8.606 25.571 28.162 23.957 29.04-.256.139-3.046.95-6.201 1.804z" fill="#14a204" stroke="#007200" stroke-width="2.807"/></g></g></g></svg>