<svg xmlns="http://www.w3.org/2000/svg" width="96.386" height="123.946" viewBox="0 0 25.502 32.794" xmlns:v="https://vecta.io/nano"><path d="M2.316 19.138S-1.5 33.005 15.09 30.315c0 0 9.36-1.79 7.937-9.938-10.778-40.319-20.711-1.24-20.711-1.24z" fill="#c8ab37" stroke="#000" stroke-width=".265"/><g fill-rule="evenodd"><path d="M11.46 3.766c-.971.606-5.035 6.826-4.448 6.559.846-.756 1.712-1.597 2.337-1.357-.642 1.588-.229 3.045 0 4.524-.209-.331 1.479-4.754 2.036-4.675l1.433 2.111-.377-2.488c2.704 2.585 1.357.455 1.357-1.885.758.287 1.233.905 1.305 1.991.291-.43.582-.859.203-2.293 3.567 8.679 6.954 15.486 1.131 22.544 7.089-3.538 4.927-10.538 3.468-14.853-1.252-4.924-2.462-7.723-4.901-10.48l-.732 1.991c-.584.468-.378-.977-.55-1.539-.378.162-1.628 3.272-1.282 2.79-.375.223-.297-2.233-.151-2.488-.377.778-.786 1.72-1.056 1.96-.249-.48-.32-1.138.226-2.413z" fill="#decd87"/><path d="M5.842 16.495c-1.008 3.454-1.254 5.43-.507 8.788l.507-8.788zm.418-5.719c-2.688 5.075-3.584 7.978-2.847 12.911.667-3.909 1.528-8.09 2.847-12.911zm.543 9.376c-.468 3.454-.405 5.43.868 8.788l-.868-8.788zm.947-7.413c-.931 2.509-1.133 3.944-.31 6.382-.007-1.932.062-3.999.31-6.382z" fill="#a0892c"/><path d="M18.037 16.81c.562 2.616.556 4.065-.607 6.361a58.5 58.5 0 0 0 .607-6.361zm-2.776-6.943c1.335 4.223 1.762 6.618 1.303 10.618-.292-3.209-.682-6.645-1.303-10.618zm-.112 9.607c.181 3.727-.035 5.769-1.526 8.919l1.526-8.919zM14 12.069c.465 3.703.405 5.755-.842 9.01l.842-9.01z" fill="#d3bc5f"/><path d="M9.888 13.844c-.931 5.982-1.133 9.404-.31 15.219-.007-4.607.062-9.535.31-15.219zm1.579-2.946c.622 6.927.647 10.89-.475 17.624a442.54 442.54 0 0 0 .475-17.624zM5.842 27.737c.537.598 1.067 1.896 2.244 1.779.232.043.168-.384.151-.812l.403.898c.797.19 1.286-.374 1.506-1.063.061.429-.188 1.334.409 1.063.231-.33.756-.769.834-1.214.216.428-.384.962-.245 1.312 1.007-.185 1.212-.504 1.436-1.455.001.975.177 1.243-.405 1.455 1.581.082 1.898.023 2.749-1.375-.192.54-.003 1.08-.589 1.62-2.872.706-5.455.357-7.953-.638-.271-.248-.444-.975-.54-1.571z" fill="#b59b32"/></g></svg>